PathFileType	4	(X/Y/Z)	/Users/itak/Documents/Research/Walk-IL/dataset/trc/00532_00183.trc
DataRate	CameraRate	NumFrames	NumMarkers	Units	OrigDataRate	OrigDataStartFrame	OrigNumFrames
100.000000	100.000000	4	53	mm	100.000000	61	495
Frame#	Time	RPSI			LPSI			L3			STRN			T10			C7			CLAV			RBAK			LBAK			LSHO			LUPA			LAEL			LAOL			LWTS			LWPS			LFRA			LIFD			LHPS			LHTS			RSHO			RUPA			RAEL			RAOL			RWTS			RWPS			RFRA			RIFD			RHTS			RHPS			RBHD			LFHD			RFHD			LBHD			LHIP			RHIP			RASI			LASI			LKNE			LTHI			LANK			LTIP			LTOE			LMT1			LMT5			LHEE			RKNE			RTHI			RANK			RTIP			RTOE			RMT1			RMT5			RHEE			
		X1	Y1	Z1	X2	Y2	Z2	X3	Y3	Z3	X4	Y4	Z4	X5	Y5	Z5	X6	Y6	Z6	X7	Y7	Z7	X8	Y8	Z8	X9	Y9	Z9	X10	Y10	Z10	X11	Y11	Z11	X12	Y12	Z12	X13	Y13	Z13	X14	Y14	Z14	X15	Y15	Z15	X16	Y16	Z16	X17	Y17	Z17	X18	Y18	Z18	X19	Y19	Z19	X20	Y20	Z20	X21	Y21	Z21	X22	Y22	Z22	X23	Y23	Z23	X24	Y24	Z24	X25	Y25	Z25	X26	Y26	Z26	X27	Y27	Z27	X28	Y28	Z28	X29	Y29	Z29	X30	Y30	Z30	X31	Y31	Z31	X32	Y32	Z32	X33	Y33	Z33	X34	Y34	Z34	X35	Y35	Z35	X36	Y36	Z36	X37	Y37	Z37	X38	Y38	Z38	X39	Y39	Z39	X40	Y40	Z40	X41	Y41	Z41	X42	Y42	Z42	X43	Y43	Z43	X44	Y44	Z44	X45	Y45	Z45	X46	Y46	Z46	X47	Y47	Z47	X48	Y48	Z48	X49	Y49	Z49	X50	Y50	Z50	X51	Y51	Z51	X52	Y52	Z52	X53	Y53	Z53	

62	0.61	-1165.446044921875	972.286865234375	-418.6600646972656	-1105.217163085938	969.7660522460938	-526.91015625	-1144.280395507812	1034.255981445312	-481.6408996582031	-942.2164306640625	1205.216918945312	-392.9808654785156	-1160.897827148438	1140.14892578125	-485.5656433105469	-1123.165405273438	1371.3193359375	-467.255859375	-977.7053833007812	1299.468383789062	-408.7230224609375	-1197.5400390625	1249.472412109375	-405.5023498535156	-1113.169921875	1317.137451171875	-556.0333862304688	-998.9771728515625	1365.204467773438	-589.4008178710938	-990.8251342773438	1239.06005859375	-651.0051879882812	-975.2957763671875	1029.943115234375	-675.2908325195312	-1065.498413085938	1020.903564453125	-633.3857421875	-902.239990234375	844.3922119140625	-622.7357788085938	-968.1246948242188	808.3562622070312	-679.8355712890625	-959.2058715820312	945.4446411132812	-674.79443359375	-898.2860107421875	686.357177734375	-617.888916015625	-944.6209716796875	754.9586181640625	-670.4208374023438	-887.2182006835938	767.7073974609375	-641.1392822265625	-1129.370361328125	1369.257934570312	-310.1832885742188	-1168.944702148438	1302.352416992188	-265.7352600097656	-1194.806884765625	1036.3896484375	-226.6396942138672	-1220.648315429688	1021.664672851562	-285.81103515625	-1102.013061523438	835.2660522460938	-194.2908172607422	-1189.609497070312	812.6346435546875	-203.476318359375	-1196.709594726562	982.233642578125	-218.1830902099609	-1102.045288085938	675.0816040039062	-188.0218505859375	-1104.827026367188	742.8103637695312	-164.2308349609375	-1171.084228515625	738.8399658203125	-188.4682464599609	-1125.271850585938	1527.127319335938	-382.4477844238281	-952.709716796875	1596.202392578125	-458.0657958984375	-1009.064025878906	1591.163452148438	-343.6537170410156	-1068.452026367188	1528.230712890625	-530.5835571289062	-951.0562744140625	896.3745727539062	-594.4219970703125	-1131.060546875	870.19384765625	-262.0254821777344	-1010.292663574219	914.1292114257812	-272.0907287597656	-902.51708984375	928.3842163085938	-488.2721862792969	-976.8585205078125	473.0047912597656	-557.2779541015625	-946.6751098632812	630.2738647460938	-570.4273071289062	-1078.300415039062	50.54609680175781	-580.4043579101562	-1011.009521484375	323.6616821289062	-572.611083984375	-926.3506469726562	39.02692413330078	-440.4906616210938	-1010.914855957031	43.30948638916016	-445.4912109375	-975.8185424804688	44.79838562011719	-540.7825927734375	-1146.804077148438	47.3421630859375	-544.7999267578125	-1116.408203125	482.1633605957031	-294.6057739257812	-1112.487182617188	740.5176391601562	-249.4035339355469	-1180.054321289062	51.90353775024414	-359.7116394042969	-1112.277954101562	336.7261962890625	-312.6580505371094	-980.4722290039062	43.10665512084961	-311.8773193359375	-1025.109008789062	46.96516036987305	-373.9874572753906	-1084.24560546875	49.64487075805664	-297.3294372558594	-1206.174926757812	41.34933090209961	-425.2716064453125	
63	0.62	-1165.4228515625	972.3084106445312	-418.5888671875	-1105.1728515625	969.7913818359375	-526.8472290039062	-1144.166015625	1034.2509765625	-481.5636901855469	-942.1141357421875	1205.151123046875	-392.9294738769531	-1160.823608398438	1140.202026367188	-485.4960021972656	-1122.982421875	1371.33740234375	-467.1563720703125	-977.5687866210938	1299.426025390625	-408.675048828125	-1197.420776367188	1249.519775390625	-405.3828430175781	-1113.03271484375	1317.169799804688	-555.9590454101562	-998.8511352539062	1365.147094726562	-589.3297729492188	-990.8006591796875	1239.038940429688	-650.9125366210938	-975.359619140625	1029.86572265625	-675.0996704101562	-1065.583740234375	1020.952209472656	-633.1298217773438	-902.1660766601562	844.4109497070312	-622.3614501953125	-968.0993041992188	808.30322265625	-679.46142578125	-959.22119140625	945.410400390625	-674.5241088867188	-898.0172729492188	686.3409423828125	-617.4559326171875	-944.5722045898438	754.930419921875	-670.014404296875	-887.188720703125	767.6578979492188	-640.7745361328125	-1129.181030273438	1369.26904296875	-310.0671691894531	-1168.785034179688	1302.356689453125	-265.6238708496094	-1194.661499023438	1036.384887695312	-226.5940704345703	-1220.560791015625	1021.681030273438	-285.7305908203125	-1101.907104492188	835.2152709960938	-194.3580780029297	-1189.510009765625	812.6235961914062	-203.4913024902344	-1196.577026367188	982.2202758789062	-218.1393280029297	-1101.955322265625	675.0409545898438	-188.1864624023438	-1104.708374023438	742.7451171875	-164.3747406005859	-1170.9853515625	738.795654296875	-188.5522003173828	-1125.002807617188	1527.127685546875	-382.2339172363281	-952.4654541015625	1596.168334960938	-457.9503173828125	-1008.765441894531	1591.11376953125	-343.5290222167969	-1068.214111328125	1528.2646484375	-530.4569091796875	-950.9417114257812	896.3607788085938	-594.3182983398438	-1131.122192382812	870.1680908203125	-261.9695739746094	-1010.316528320312	914.073974609375	-272.0552673339844	-902.419921875	928.3614501953125	-488.2178039550781	-976.8803100585938	473.0061950683594	-557.2631225585938	-946.6994018554688	630.2777099609375	-570.4044189453125	-1078.312377929688	50.55615234375	-580.387451171875	-1010.998962402344	323.6791076660156	-572.5830078125	-926.343994140625	39.01404190063477	-440.4801330566406	-1010.916259765625	43.29140853881836	-445.4571533203125	-975.81298828125	44.82292938232422	-540.7662963867188	-1146.810546875	47.33819198608398	-544.7935180664062	-1116.374877929688	482.1282653808594	-294.5594177246094	-1112.468017578125	740.47216796875	-249.3546447753906	-1180.049560546875	51.87922286987305	-359.7121887207031	-1112.230102539062	336.6759338378906	-312.6478576660156	-980.467529296875	43.1225471496582	-311.8852233886719	-1025.1015625	46.96231842041016	-374.0033874511719	-1084.257934570312	49.65167617797852	-297.3435974121094	-1206.193725585938	41.30785751342773	-425.2828674316406	
64	0.63	-1165.390625	972.3239135742188	-418.5248413085938	-1105.124267578125	969.810546875	-526.7816772460938	-1144.025390625	1034.238891601562	-481.4791259765625	-941.9918823242188	1205.07470703125	-392.87158203125	-1160.737426757812	1140.2587890625	-485.41796875	-1122.791381835938	1371.35546875	-467.0465698242188	-977.4138793945312	1299.377563476562	-408.62451171875	-1197.300415039062	1249.561889648438	-405.2704162597656	-1112.873168945312	1317.205810546875	-555.9013061523438	-998.71484375	1365.085327148438	-589.2583618164062	-990.75537109375	1239.01025390625	-650.8193969726562	-975.3870239257812	1029.78564453125	-674.920654296875	-1065.61865234375	1020.982482910156	-632.8864135742188	-902.1150512695312	844.4100341796875	-622.0123291015625	-968.0664672851562	808.250732421875	-679.1162719726562	-959.2247924804688	945.3626708984375	-674.2708740234375	-897.7816162109375	686.3075561523438	-617.0518798828125	-944.5098266601562	754.8964233398438	-669.6551513671875	-887.179931640625	767.5851440429688	-640.439208984375	-1128.981201171875	1369.274047851562	-309.9539184570312	-1168.611572265625	1302.360107421875	-265.5127563476562	-1194.498046875	1036.3798828125	-226.5437469482422	-1220.465576171875	1021.689880371094	-285.643798828125	-1101.786499023438	835.1614990234375	-194.4241943359375	-1189.397216796875	812.6102294921875	-203.4931335449219	-1196.421508789062	982.2054443359375	-218.0881652832031	-1101.844116210938	674.99462890625	-188.3389434814453	-1104.58056640625	742.6834716796875	-164.5100708007812	-1170.879150390625	738.7582397460938	-188.6187133789062	-1124.722045898438	1527.122314453125	-382.0164489746094	-952.2171020507812	1596.138549804688	-457.8321228027344	-1008.459350585938	1591.051635742188	-343.4197998046875	-1067.962036132812	1528.2890625	-530.3297729492188	-950.81005859375	896.3378295898438	-594.1990966796875	-1131.171142578125	870.1356811523438	-261.9049072265625	-1010.344482421875	914.0150146484375	-272.0162658691406	-902.296630859375	928.3460083007812	-488.1539916992188	-976.8993530273438	473.0020446777344	-557.2431030273438	-946.7158203125	630.2761840820312	-570.37353515625	-1078.324951171875	50.56673049926758	-580.3728637695312	-1010.98486328125	323.6867370605469	-572.5533447265625	-926.3364868164062	39.00031661987305	-440.4684143066406	-1010.9130859375	43.27346420288086	-445.4210205078125	-975.8002319335938	44.86521148681641	-540.740234375	-1146.817138671875	47.33595275878906	-544.7892456054688	-1116.319702148438	482.0877075195312	-294.5047912597656	-1112.429565429688	740.4210205078125	-249.2926025390625	-1180.045776367188	51.85327529907227	-359.7135314941406	-1112.1640625	336.6182861328125	-312.6326904296875	-980.462890625	43.13516235351562	-311.9008483886719	-1025.092651367188	46.95742797851562	-374.0215454101562	-1084.27099609375	49.66071319580078	-297.3623657226562	-1206.220092773438	41.26792144775391	-425.288818359375	
65	0.64	-1165.350219726562	972.3325805664062	-418.4684448242188	-1105.071533203125	969.823974609375	-526.714599609375	-1143.856201171875	1034.214965820312	-481.3879699707031	-941.8480224609375	1204.98681640625	-392.8040466308594	-1160.63916015625	1140.317260742188	-485.3320922851562	-1122.592163085938	1371.373168945312	-466.9267272949219	-977.2407836914062	1299.321899414062	-408.5699768066406	-1197.178466796875	1249.5986328125	-405.1651611328125	-1112.690673828125	1317.245239257812	-555.8604125976562	-998.56591796875	1365.020141601562	-589.1869506835938	-990.6821899414062	1238.972412109375	-650.7242431640625	-975.3695068359375	1029.701538085938	-674.7521362304688	-1065.60693359375	1020.991027832031	-632.667724609375	-902.09521484375	844.3853149414062	-621.6932983398438	-968.0259399414062	808.1987915039062	-678.8058471679688	-959.2086791992188	945.297119140625	-674.0379028320312	-897.6099243164062	686.2571411132812	-616.6762084960938	-944.43603515625	754.85205078125	-669.3452758789062	-887.1868286132812	767.4937744140625	-640.1305541992188	-1128.772827148438	1369.272583007812	-309.8453674316406	-1168.423950195312	1302.363525390625	-265.4029235839844	-1194.318481445312	1036.374145507812	-226.4882965087891	-1220.362670898438	1021.691772460938	-285.5524291992188	-1101.648803710938	835.1060791015625	-194.4889831542969	-1189.271484375	812.59423828125	-203.4800720214844	-1196.244873046875	982.1889038085938	-218.0287933349609	-1101.708740234375	674.94482421875	-188.4763488769531	-1104.4384765625	742.6240844726562	-164.6368560791016	-1170.761840820312	738.7269897460938	-188.6677398681641	-1124.430419921875	1527.11181640625	-381.7999572753906	-951.9583129882812	1596.11083984375	-457.7106628417969	-1008.142639160156	1590.980102539062	-343.3224487304688	-1067.700439453125	1528.300415039062	-530.2030639648438	-950.673583984375	896.3046264648438	-594.0689086914062	-1131.203491210938	870.0967407226562	-261.8316650390625	-1010.374755859375	913.9523315429688	-271.9737548828125	-902.1473999023438	928.3382568359375	-488.0799865722656	-976.91357421875	472.991943359375	-557.2120971679688	-946.7247314453125	630.2682495117188	-570.33349609375	-1078.337890625	50.57876205444336	-580.3590087890625	-1010.9677734375	323.6800842285156	-572.519775390625	-926.3275756835938	38.98678588867188	-440.4544982910156	-1010.908630371094	43.25539779663086	-445.3833312988281	-975.7800903320312	44.92367553710938	-540.7058715820312	-1146.823364257812	47.33510589599609	-544.7860717773438	-1116.240234375	482.0421142578125	-294.4425048828125	-1112.366943359375	740.3638916015625	-249.2161712646484	-1180.045654296875	51.82579040527344	-359.7157592773438	-1112.078979492188	336.5536499023438	-312.6127014160156	-980.4578247070312	43.14339447021484	-311.9255065917969	-1025.082397460938	46.95060729980469	-374.0415344238281	-1084.28369140625	49.67147827148438	-297.385009765625	-1206.2529296875	41.22933197021484	-425.2904357910156	
